<svg width="50" height="50" viewBox="0 0 50 50" fill="none" xmlns="http://www.w3.org/2000/svg">
<path d="M16.0001 3C8.83254 3 3.00006 8.83248 3.00006 16V34C3.00006 41.1675 8.83254 47 16.0001 47H34.0001C41.1676 47 47.0001 41.1675 47.0001 34V16C47.0001 8.83248 41.1676 3 34.0001 3H16.0001ZM16.0001 5H34.0001C40.0865 5 45.0001 9.91352 45.0001 16V34C45.0001 40.0865 40.0865 45 34.0001 45H16.0001C9.91358 45 5.00006 40.0865 5.00006 34V16C5.00006 9.91352 9.91358 5 16.0001 5ZM37.0001 11C36.4696 11 35.9609 11.2107 35.5858 11.5858C35.2108 11.9609 35.0001 12.4696 35.0001 13C35.0001 13.5304 35.2108 14.0391 35.5858 14.4142C35.9609 14.7893 36.4696 15 37.0001 15C37.5305 15 38.0392 14.7893 38.4143 14.4142C38.7893 14.0391 39.0001 13.5304 39.0001 13C39.0001 12.4696 38.7893 11.9609 38.4143 11.5858C38.0392 11.2107 37.5305 11 37.0001 11ZM25.0001 14C18.9368 14 14.0001 18.9367 14.0001 25C14.0001 31.0633 18.9368 36 25.0001 36C31.0633 36 36.0001 31.0633 36.0001 25C36.0001 18.9367 31.0633 14 25.0001 14ZM25.0001 16C29.9825 16 34.0001 20.0176 34.0001 25C34.0001 29.9824 29.9825 34 25.0001 34C20.0177 34 16.0001 29.9824 16.0001 25C16.0001 20.0176 20.0177 16 25.0001 16Z" fill="black"/>
</svg>
