<svg width="18" height="18" viewBox="0 0 18 18" fill="none" xmlns="http://www.w3.org/2000/svg">
<path d="M5.39961 3.23999C4.83148 3.23999 4.37164 3.63796 4.07211 4.16249C3.77258 4.68702 3.59961 5.36905 3.59961 6.11999C3.59961 6.87093 3.77258 7.55296 4.07211 8.07749C4.37164 8.60202 4.83148 8.99999 5.39961 8.99999C5.96773 8.99999 6.42758 8.60202 6.72711 8.07749C7.02664 7.55296 7.19961 6.87093 7.19961 6.11999C7.19961 5.36905 7.02664 4.68702 6.72711 4.16249C6.42758 3.63796 5.96773 3.23999 5.39961 3.23999ZM12.2059 3.27374L4.92711 14.7262H5.75961L13.0271 3.27374H12.2059ZM5.39961 3.95999C5.62742 3.95999 5.88758 4.12312 6.10836 4.51124C6.32914 4.89937 6.47961 5.48015 6.47961 6.11999C6.47961 6.75983 6.32914 7.34062 6.10836 7.72874C5.88758 8.11687 5.62742 8.27999 5.39961 8.27999C5.1718 8.27999 4.91164 8.11687 4.69086 7.72874C4.47008 7.34062 4.31961 6.75983 4.31961 6.11999C4.31961 5.48015 4.47008 4.89937 4.69086 4.51124C4.91164 4.12312 5.1718 3.95999 5.39961 3.95999ZM12.5996 8.99999C12.0315 8.99999 11.5716 9.39796 11.2721 9.92249C10.9726 10.447 10.7996 11.1291 10.7996 11.88C10.7996 12.6309 10.9726 13.313 11.2721 13.8375C11.5716 14.362 12.0315 14.76 12.5996 14.76C13.1677 14.76 13.6276 14.362 13.9271 13.8375C14.2266 13.313 14.3996 12.6309 14.3996 11.88C14.3996 11.1291 14.2266 10.447 13.9271 9.92249C13.6276 9.39796 13.1677 8.99999 12.5996 8.99999ZM12.5996 9.71999C12.8274 9.71999 13.0876 9.88312 13.3084 10.2712C13.5291 10.6594 13.6796 11.2401 13.6796 11.88C13.6796 12.5198 13.5291 13.1006 13.3084 13.4887C13.0876 13.8769 12.8274 14.04 12.5996 14.04C12.3718 14.04 12.1116 13.8769 11.8909 13.4887C11.6701 13.1006 11.5196 12.5198 11.5196 11.88C11.5196 11.2401 11.6701 10.6594 11.8909 10.2712C12.1116 9.88312 12.3718 9.71999 12.5996 9.71999Z" fill="black"/>
</svg>
