<svg width="20" height="20" viewBox="0 0 20 20" fill="none" xmlns="http://www.w3.org/2000/svg">
<path d="M8.39961 1.20001C4.64805 1.20001 1.59961 4.24845 1.59961 8.00001C1.59961 11.7516 4.64805 14.8 8.39961 14.8C9.88398 14.8 11.2559 14.3219 12.3746 13.5125L17.6371 18.7625L18.7621 17.6375L13.5621 12.425C14.584 11.2344 15.1996 9.68907 15.1996 8.00001C15.1996 4.24845 12.1512 1.20001 8.39961 1.20001ZM8.39961 2.00001C11.7184 2.00001 14.3996 4.68126 14.3996 8.00001C14.3996 11.3188 11.7184 14 8.39961 14C5.08086 14 2.39961 11.3188 2.39961 8.00001C2.39961 4.68126 5.08086 2.00001 8.39961 2.00001Z" fill="#6D6D6D"/>
</svg>
